<svg version="1.1" id="Layer_1" xmlns="http://www.w3.org/2000/svg" xmlns:xlink="http://www.w3.org/1999/xlink" x="0px" y="0px"
	 viewBox="0 0 331 80" style="enable-background:new 0 0 331 80;" xml:space="preserve">
<style type="text/css">
	.st0{fill:#BE1E2D;}
	.st1{fill:#D0D2D3;}
	.st2{fill:#ABACAE;}
</style>
<g>
	<path class="st0" d="M61.94,44.31c-1.77-3.33-13.1-17.33-13.78-18.15c-6.69-8.09-3.67-13.29-1.46-15.76
		c-3.02,3.04-7.9,8.87-8.35,9.47c-3.74,4.95-1.85,10.34,0.12,13.71c1.19,2.03,17.96,19.65,19.24,27.91
		c1.59,10.26-11.64,14.39-15.29,15.65c-4.31,1.48-1.75,1.01-1.75,1.01c16.84-1.21,22.7-12.19,23.3-13.77
		C64.55,62.81,68.41,56.46,61.94,44.31z"/>
	<path class="st1" d="M58.63,8.76c-0.11-0.07-4.03-2.42-7.79,0.28c0,0,0,0-0.01,0l0,0c-3.91,2.69-4.06,5.93-4.11,6.24
		c-0.01,0.05-0.02,0.1-0.02,0.15c3.54-1.4,20.61,24.34,21.18,25.4c3.35,6.18,1.76,10.8-0.8,13.98c0.11,1.18,0.13,2.36,0.03,3.52
		c5.47-3.78,7.9-8.54,8.33-9.45c5.69-11.89-2.01-22.26-9.13-31.81C65.09,15.43,62.12,10.93,58.63,8.76z"/>
	<path class="st0" d="M15.48,35.18c1.77,3.33,13.1,17.33,13.78,18.15c6.69,8.09,3.67,13.29,1.46,15.76c3.02-3.04,7.9-8.87,8.35-9.47
		c3.74-4.95,1.85-10.34-0.12-13.71C37.77,43.88,21,26.26,19.71,18C18.12,7.75,31.36,3.61,35,2.36c4.31-1.48,1.75-1.01,1.75-1.01
		c-16.83,1.21-22.7,12.19-23.3,13.77C12.87,16.68,9.01,23.03,15.48,35.18z"/>
	<path class="st1" d="M18.79,70.73c0.11,0.07,4.03,2.43,7.79-0.28c0,0,0,0,0.01,0l0,0c3.91-2.69,4.05-5.93,4.11-6.24
		c0.01-0.05,0.02-0.1,0.02-0.16c-3.53,1.4-20.61-24.34-21.18-25.4c-3.35-6.18-1.76-10.8,0.79-13.98c-0.11-1.18-0.13-2.36-0.03-3.52
		c-5.47,3.78-7.9,8.54-8.33,9.45c-5.69,11.89,2,22.26,9.12,31.81C12.34,64.06,15.3,68.56,18.79,70.73z"/>
</g>
<g>
	<g>
		<path class="st0" d="M117.51,10.58c2.12,1.07,3.78,2.54,4.97,4.41c1.19,1.87,1.78,3.96,1.78,6.26c0,2.4-0.63,4.54-1.88,6.42
			s-2.94,3.35-5.06,4.39c-2.12,1.05-4.47,1.57-7.05,1.57h-7.88V8.97h7.88C112.98,8.97,115.39,9.51,117.51,10.58z M116.01,29.94
			c1.71-0.85,3.03-2.02,3.96-3.51c0.93-1.49,1.4-3.19,1.4-5.1c0-1.88-0.46-3.58-1.38-5.08c-0.92-1.51-2.23-2.69-3.92-3.55
			c-1.69-0.86-3.68-1.29-5.95-1.29h-4.97v19.8h5C112.36,31.21,114.31,30.78,116.01,29.94z"/>
		<path class="st0" d="M110.27,34.58h-8.89V8.03h8.89c2.86,0,5.46,0.58,7.72,1.72l0,0c2.28,1.15,4.08,2.75,5.35,4.76
			c1.28,2.01,1.92,4.28,1.92,6.74c0,2.57-0.68,4.89-2.03,6.92c-1.34,2.02-3.17,3.61-5.45,4.73C115.53,34.02,113,34.58,110.27,34.58z
			 M103.4,32.7h6.87c2.4,0,4.61-0.49,6.58-1.46c1.95-0.96,3.52-2.33,4.67-4.06c1.14-1.72,1.73-3.72,1.73-5.93
			c0-2.12-0.55-4.07-1.64-5.79c-1.09-1.71-2.63-3.08-4.58-4.06l0,0c-1.96-0.99-4.24-1.49-6.76-1.49h-6.87V32.7z M110.16,32.15h-6.01
			V10.47h5.97c2.43,0,4.6,0.47,6.43,1.4c1.85,0.94,3.3,2.25,4.32,3.91c1.01,1.64,1.52,3.51,1.52,5.55c0,2.07-0.52,3.94-1.54,5.57
			c-1.03,1.64-2.49,2.94-4.36,3.87h0C114.64,31.68,112.51,32.15,110.16,32.15z M106.16,30.27h3.99c2.02,0,3.83-0.39,5.38-1.16
			c1.55-0.77,2.72-1.8,3.56-3.16c0.84-1.34,1.27-2.9,1.27-4.63c0-1.71-0.42-3.26-1.25-4.62c-0.82-1.34-2.01-2.42-3.53-3.19
			c-1.54-0.78-3.37-1.17-5.47-1.17h-3.96V30.27z"/>
	</g>
	<g>
		<path class="st0" d="M151.66,33.68l-3.37-6.32h-10.04l0.15-0.32c0.28-0.49,0.68-0.95,1.21-1.38c0.53-0.42,1.25-0.65,2.16-0.67H147
			l-5.5-10.34l-10.12,19.02h-3.03l13.19-24.67l13.15,24.67H151.66z"/>
		<path class="st0" d="M156.32,34.62h-5.29l-3.37-6.32h-10.97l0.81-1.69c0.34-0.6,0.82-1.15,1.45-1.65c0.71-0.56,1.64-0.87,2.79-0.9
			l3.63,0l-3.87-7.28l-9.49,17.84h-5.29L141.54,6.9L156.32,34.62z M152.29,32.74h0.78l-11.53-21.62l-11.56,21.62h0.78l10.75-20.2
			l7.12,13.4h-6.86c-0.64,0.02-1.16,0.17-1.5,0.44c-0.02,0.01-0.03,0.03-0.05,0.04h8.7L152.29,32.74z"/>
	</g>
	<g>
		<path class="st0" d="M182,9.71c0.54,0.49,0.81,1.09,0.81,1.8v22.13c-0.93,0-1.82-0.2-2.65-0.6c-0.83-0.4-1.52-0.95-2.05-1.66
			l-14.18-18.78v21.03c-0.76,0-1.4-0.25-1.93-0.74c-0.53-0.49-0.8-1.09-0.8-1.8V8.97c1.01,0,1.96,0.22,2.86,0.65
			c0.9,0.44,1.64,1.03,2.22,1.78l13.76,18.18V8.97C180.81,8.97,181.46,9.22,182,9.71z"/>
		<path class="st0" d="M183.82,34.58h-1.01c-1.09,0-2.14-0.24-3.12-0.7c-0.98-0.47-1.79-1.13-2.41-1.96l-12.34-16.34v19h-1.01
			c-1.03,0-1.92-0.34-2.65-1.02c-0.72-0.67-1.09-1.5-1.09-2.46V8.03h1.01c1.17,0,2.29,0.26,3.33,0.76c1.03,0.5,1.9,1.2,2.57,2.07
			l11.93,15.76V8.03h1.01c1.03,0,1.92,0.34,2.66,1.01l0,0c0.74,0.68,1.12,1.51,1.12,2.47V34.58z M181.06,32.39
			c0.25,0.09,0.49,0.16,0.75,0.21V11.51c0-0.45-0.16-0.81-0.51-1.13l0,0c-0.08-0.07-0.16-0.13-0.24-0.19V32.39z M162.22,10v21.1
			c0,0.46,0.16,0.82,0.5,1.13c0.07,0.06,0.14,0.12,0.21,0.17V10.18C162.7,10.11,162.46,10.04,162.22,10z M163.52,10.42l15.42,20.42
			c0.44,0.59,0.99,1.03,1.68,1.36c0.09,0.04,0.18,0.08,0.26,0.12l-15.42-20.38c-0.49-0.63-1.1-1.12-1.86-1.49
			C163.58,10.44,163.55,10.43,163.52,10.42z"/>
	</g>
	<g>
		<path class="st0" d="M213.25,31.06c0,0.71-0.27,1.31-0.81,1.82c-0.54,0.51-1.21,0.76-1.99,0.76V22.35h-15.08v11.29h-2.77V8.97
			c0.76,0,1.41,0.25,1.95,0.76c0.54,0.51,0.81,1.11,0.81,1.82v8.33h15.08V8.97h2.8V31.06z"/>
		<path class="st0" d="M210.45,34.58h-1.01V23.29h-13.07v11.29h-4.79V8.03h1.01c1.03,0,1.93,0.35,2.66,1.03
			c0.74,0.69,1.11,1.52,1.11,2.48v7.39h13.07V8.03h4.82v23.03c0,0.96-0.37,1.8-1.11,2.48C212.41,34.23,211.5,34.58,210.45,34.58z
			 M193.6,32.7h0.75V21.41h17.1v11.02c0.09-0.06,0.18-0.13,0.27-0.21c0.35-0.33,0.52-0.7,0.52-1.15V9.91h-0.79v10.91h-17.1v-9.27
			c0-0.46-0.17-0.82-0.52-1.15c-0.07-0.07-0.15-0.13-0.23-0.18V32.7z"/>
	</g>
	<g>
		<path class="st0" d="M254.71,31.06c0,0.71-0.27,1.31-0.81,1.82c-0.54,0.51-1.21,0.76-1.99,0.76V22.35h-15.08v11.29h-2.77V8.97
			c0.76,0,1.41,0.25,1.95,0.76c0.54,0.51,0.81,1.11,0.81,1.82v8.33h15.08V8.97h2.8V31.06z"/>
		<path class="st0" d="M251.91,34.58h-1.01V23.29h-13.07v11.29h-4.79V8.03h1.01c1.03,0,1.93,0.35,2.67,1.03
			c0.74,0.69,1.11,1.52,1.11,2.48v7.39h13.07V8.03h4.82v23.03c0,0.96-0.37,1.8-1.11,2.48S252.97,34.58,251.91,34.58z M235.07,32.7
			h0.75V21.41h17.1v11.02c0.09-0.06,0.18-0.13,0.27-0.21c0.35-0.33,0.52-0.7,0.52-1.15V9.91h-0.79v10.91h-17.1v-9.27
			c0-0.46-0.17-0.82-0.52-1.15c-0.07-0.07-0.15-0.13-0.23-0.18V32.7z"/>
	</g>
	<g>
		<path class="st0" d="M281.38,9.73c0.54-0.51,1.19-0.76,1.95-0.76v15.03c0,3.13-0.87,5.56-2.62,7.29
			c-1.74,1.73-4.18,2.59-7.32,2.59c-3.16,0-5.61-0.88-7.35-2.65c-1.74-1.76-2.62-4.13-2.62-7.09V8.97c0.76,0,1.41,0.25,1.95,0.76
			c0.54,0.51,0.81,1.11,0.81,1.82v12.49c0,2.54,0.66,4.41,1.99,5.61c1.33,1.2,3.09,1.8,5.29,1.8c2.27,0,4.02-0.64,5.25-1.91
			c1.23-1.27,1.84-3.06,1.84-5.36V11.55C280.56,10.84,280.84,10.24,281.38,9.73z"/>
		<path class="st0" d="M273.4,34.83c-3.44,0-6.16-0.99-8.1-2.95c-1.91-1.94-2.88-4.54-2.88-7.73V8.03h1.01
			c1.03,0,1.93,0.35,2.67,1.03c0.74,0.69,1.11,1.52,1.11,2.48v12.49c0,2.27,0.57,3.93,1.68,4.94c1.14,1.03,2.64,1.53,4.58,1.53
			c1.99,0,3.46-0.52,4.5-1.59c1.05-1.09,1.58-2.68,1.58-4.74V11.55c0-0.96,0.37-1.8,1.11-2.48l0,0c0.74-0.69,1.63-1.03,2.67-1.03
			h1.01v15.97c0,3.36-0.97,6.03-2.89,7.93C279.52,33.85,276.81,34.83,273.4,34.83z M264.44,10.21v13.94c0,2.71,0.79,4.88,2.35,6.46
			c1.56,1.58,3.72,2.34,6.61,2.34c2.87,0,5.02-0.75,6.58-2.3c1.55-1.54,2.34-3.78,2.34-6.64v-13.8c-0.08,0.05-0.15,0.12-0.23,0.18
			c-0.35,0.33-0.52,0.7-0.52,1.15v12.63c0,2.53-0.71,4.55-2.1,5.99c-1.42,1.47-3.44,2.22-6,2.22c-2.46,0-4.48-0.69-5.99-2.07
			c-1.52-1.38-2.3-3.49-2.3-6.29V11.55c0-0.46-0.17-0.82-0.52-1.15C264.6,10.33,264.52,10.26,264.44,10.21z"/>
	</g>
	<g>
		<path class="st0" d="M314.49,8.97l-10.27,14.26v7.8c0,0.73-0.28,1.35-0.83,1.85c-0.56,0.51-1.21,0.76-1.97,0.76V23.23L291.14,8.97
			c1.04,0,2.02,0.24,2.96,0.71c0.93,0.47,1.68,1.11,2.24,1.91l6.52,9.18l8.45-11.79H314.49z"/>
		<path class="st0" d="M301.41,34.58h-1.01V23.52L289.25,8.03h1.89c1.2,0,2.36,0.28,3.44,0.82c1.08,0.55,1.96,1.29,2.6,2.22
			l5.68,7.99l7.91-11.03h5.62l-11.15,15.48v7.51c0,0.99-0.38,1.84-1.14,2.52C303.34,34.24,302.44,34.58,301.41,34.58z M293.38,10.39
			l9.04,12.55v9.47c0.09-0.06,0.17-0.12,0.26-0.2c0.36-0.33,0.53-0.7,0.53-1.18v-8.09l9.39-13.03h-0.75l-9,12.55l-7.36-10.36
			c-0.47-0.68-1.08-1.2-1.88-1.6C293.53,10.46,293.46,10.43,293.38,10.39z"/>
	</g>
</g>
<g>
	<g>
		<path class="st2" d="M169.78,62.44c0.38,0.89,0.56,1.68,0.56,2.38c0,1.55-0.41,2.91-1.23,4.07c-0.82,1.16-1.94,2.06-3.36,2.68
			c-1.42,0.62-3.02,0.94-4.79,0.94c-1.75,0-3.35-0.36-4.81-1.07c-1.46-0.71-2.65-1.64-3.54-2.78c-0.9-1.14-1.42-2.33-1.55-3.58
			c0.27-0.07,0.55-0.11,0.85-0.11c0.56,0,1.1,0.14,1.61,0.43c0.51,0.29,0.91,0.67,1.21,1.14c0.64,1.03,1.53,1.84,2.66,2.46
			c1.13,0.61,2.32,0.92,3.59,0.92c1.75,0,3.24-0.41,4.49-1.24c1.25-0.83,1.87-2,1.87-3.53c0-1.37-0.51-2.43-1.53-3.17
			c-1.02-0.74-2.19-1.23-3.5-1.48l-3.75-0.71c-0.81-0.15-1.63-0.41-2.48-0.77c-0.85-0.36-1.6-0.84-2.28-1.44
			c-1.32-1.15-1.97-2.66-1.97-4.54c0-1.45,0.41-2.73,1.23-3.83c0.82-1.1,1.91-1.96,3.28-2.57c1.37-0.61,2.83-0.92,4.39-0.92
			c1.91,0,3.52,0.31,4.85,0.94c1.33,0.63,2.35,1.42,3.06,2.38c0.71,0.96,1.17,1.96,1.39,2.98l-0.2,0.04
			c-0.32,0.05-0.58,0.07-0.77,0.07c-0.54,0-1.03-0.11-1.49-0.32c-0.46-0.21-0.83-0.52-1.13-0.92c-1.37-1.77-3.28-2.66-5.72-2.66
			c-0.24,0-0.63,0.02-1.17,0.07c-1.32,0.12-2.44,0.62-3.38,1.5c-0.94,0.88-1.41,1.93-1.41,3.15c0,1,0.34,1.87,1.03,2.61
			c0.68,0.74,1.71,1.23,3.08,1.48l3.59,0.64c1.13,0.2,2.14,0.48,3.04,0.83c0.9,0.35,1.71,0.84,2.44,1.46
			C168.79,60.74,169.41,61.56,169.78,62.44z"/>
		<path class="st2" d="M160.96,73.45c-1.9,0-3.68-0.4-5.28-1.18c-1.6-0.78-2.9-1.8-3.89-3.05c-1-1.27-1.59-2.63-1.74-4.05
			c-0.05-0.45,0.25-0.86,0.71-0.99c0.36-0.1,0.74-0.15,1.14-0.15c0.75,0,1.46,0.19,2.13,0.57c0.65,0.37,1.18,0.87,1.56,1.48
			c0.56,0.89,1.31,1.58,2.29,2.12c0.98,0.53,1.99,0.79,3.08,0.79c1.55,0,2.82-0.35,3.91-1.06c0.99-0.65,1.45-1.53,1.45-2.76
			c0-1.08-0.37-1.87-1.14-2.43c-0.89-0.64-1.93-1.08-3.09-1.3l-3.75-0.71c-0.88-0.16-1.78-0.44-2.7-0.84
			c-0.94-0.4-1.8-0.95-2.55-1.62c-1.51-1.32-2.28-3.08-2.28-5.22c0-1.64,0.47-3.11,1.41-4.36c0.92-1.23,2.15-2.2,3.68-2.88
			c1.5-0.67,3.13-1.01,4.83-1.01c2.06,0,3.84,0.35,5.31,1.04c1.47,0.69,2.63,1.6,3.44,2.69c0.79,1.07,1.31,2.19,1.55,3.33
			c0.11,0.51-0.25,1-0.79,1.1l-0.2,0.04c-0.41,0.06-0.71,0.09-0.96,0.09c-0.69,0-1.35-0.14-1.94-0.42c-0.61-0.28-1.12-0.7-1.51-1.23
			c-1.17-1.51-2.77-2.25-4.89-2.25c-0.14,0-0.44,0.01-1.07,0.07c-1.09,0.1-1.99,0.51-2.77,1.23c-0.75,0.7-1.11,1.51-1.11,2.49
			c0,0.77,0.26,1.43,0.78,1.99c0.53,0.57,1.38,0.97,2.51,1.17l3.58,0.64c1.19,0.21,2.28,0.51,3.24,0.88
			c1.01,0.39,1.93,0.94,2.73,1.64c0.97,0.85,1.68,1.79,2.11,2.8c0,0,0,0,0,0c0.42,1,0.63,1.91,0.63,2.73c0,1.73-0.47,3.27-1.39,4.58
			c-0.92,1.31-2.19,2.32-3.78,3.02C164.63,73.11,162.87,73.45,160.96,73.45z M152.25,65.94c0.22,0.74,0.61,1.47,1.17,2.17
			c0.8,1.02,1.88,1.86,3.2,2.5c1.31,0.64,2.77,0.96,4.35,0.96c1.61,0,3.08-0.29,4.36-0.85c1.26-0.55,2.23-1.32,2.95-2.35
			c0.72-1.02,1.06-2.18,1.06-3.55c0-0.58-0.17-1.26-0.49-2.04c-0.32-0.75-0.86-1.47-1.6-2.12c-0.63-0.54-1.35-0.97-2.14-1.28
			c-0.83-0.32-1.79-0.58-2.84-0.77l-3.59-0.64c-1.6-0.29-2.82-0.89-3.66-1.79c-0.84-0.91-1.27-1.99-1.27-3.22
			c0-1.48,0.57-2.76,1.71-3.82c1.1-1.03,2.45-1.62,3.99-1.77c0.58-0.05,0.99-0.08,1.27-0.08c2.78,0,4.98,1.03,6.54,3.05
			c0.21,0.29,0.46,0.49,0.76,0.63c0.22,0.1,0.45,0.17,0.7,0.2c-0.22-0.54-0.53-1.08-0.91-1.6c-0.61-0.83-1.52-1.53-2.69-2.08
			c-1.18-0.55-2.66-0.84-4.4-0.84c-1.4,0-2.73,0.28-3.95,0.83c-1.2,0.54-2.18,1.3-2.89,2.26c-0.71,0.95-1.05,2.02-1.05,3.29
			c0,1.62,0.54,2.88,1.66,3.85c0.6,0.53,1.27,0.96,2.01,1.28c0.77,0.33,1.53,0.57,2.25,0.7l3.75,0.71c1.46,0.28,2.78,0.84,3.92,1.66
			c1.28,0.92,1.92,2.24,1.92,3.91c0,1.84-0.77,3.28-2.3,4.29c-1.42,0.94-3.12,1.41-5.08,1.41c-1.44,0-2.82-0.35-4.09-1.05
			c-1.27-0.69-2.29-1.63-3.02-2.79c-0.21-0.34-0.49-0.61-0.86-0.81C152.74,66.07,152.5,65.99,152.25,65.94z"/>
	</g>
	<g>
		<path class="st2" d="M199.79,47.53c2.15,1.18,3.84,2.78,5.08,4.8c1.23,2.03,1.85,4.26,1.85,6.71c0,2.48-0.62,4.75-1.85,6.81
			c-1.24,2.06-2.93,3.69-5.1,4.88c-2.16,1.19-4.59,1.78-7.27,1.78c-2.63,0-5.02-0.59-7.17-1.76c-2.15-1.17-3.84-2.78-5.08-4.8
			c-1.24-2.03-1.85-4.26-1.85-6.71c0-2.48,0.62-4.75,1.85-6.81c1.23-2.06,2.93-3.69,5.1-4.88c2.16-1.19,4.59-1.78,7.27-1.78
			C195.25,45.77,197.64,46.36,199.79,47.53z M198.28,68.48c1.68-0.96,2.99-2.26,3.95-3.88c0.95-1.63,1.43-3.41,1.43-5.36
			s-0.48-3.76-1.43-5.44c-0.95-1.67-2.28-3.01-3.99-3.99c-1.71-0.99-3.62-1.48-5.74-1.48c-2.12,0-4.02,0.48-5.7,1.44
			c-1.68,0.96-2.99,2.26-3.93,3.9c-0.94,1.64-1.41,3.43-1.41,5.38c0,1.98,0.48,3.79,1.43,5.46c0.95,1.66,2.28,2.98,3.97,3.96
			c1.69,0.98,3.61,1.46,5.76,1.46C194.72,69.93,196.6,69.44,198.28,68.48z"/>
		<path class="st2" d="M192.5,73.45c-2.8,0-5.39-0.64-7.68-1.89c-2.29-1.25-4.12-2.99-5.44-5.15c-1.32-2.16-1.98-4.57-1.98-7.18
			c0-2.63,0.67-5.07,1.98-7.27c1.32-2.2,3.16-3.96,5.46-5.23c2.31-1.27,4.93-1.91,7.78-1.91c2.8,0,5.39,0.64,7.68,1.89c0,0,0,0,0,0
			c2.29,1.26,4.12,2.99,5.44,5.15c1.32,2.16,1.98,4.58,1.98,7.18c0,2.63-0.67,5.07-1.98,7.27c-1.32,2.2-3.16,3.96-5.46,5.23
			C197.98,72.81,195.36,73.45,192.5,73.45z M192.62,46.71c-2.49,0-4.76,0.56-6.76,1.65c-2,1.1-3.59,2.62-4.73,4.52
			c-1.14,1.91-1.73,4.05-1.73,6.35c0,2.27,0.58,4.38,1.72,6.25c1.14,1.87,2.73,3.37,4.71,4.45c1.98,1.08,4.22,1.63,6.66,1.63
			c2.49,0,4.76-0.56,6.76-1.65c2-1.1,3.59-2.62,4.73-4.52c1.14-1.91,1.73-4.05,1.73-6.35c0-2.27-0.58-4.38-1.72-6.25
			c-1.14-1.87-2.72-3.37-4.71-4.45l0,0C197.3,47.26,195.06,46.71,192.62,46.71z M192.62,70.87c-2.33,0-4.45-0.54-6.29-1.6
			c-1.84-1.06-3.29-2.51-4.33-4.31c-1.03-1.79-1.55-3.78-1.55-5.9c0-2.1,0.51-4.06,1.53-5.83c1.02-1.78,2.46-3.21,4.29-4.26
			c1.83-1.05,3.93-1.58,6.23-1.58c2.3,0,4.41,0.55,6.27,1.62c1.85,1.07,3.31,2.54,4.35,4.35c1.03,1.81,1.55,3.78,1.55,5.88
			c0,2.1-0.52,4.06-1.55,5.81c-1.03,1.76-2.48,3.19-4.3,4.23l0,0C196.98,70.33,194.9,70.87,192.62,70.87z M192.5,49.26
			c-1.92,0-3.66,0.44-5.17,1.3c-1.52,0.87-2.72,2.06-3.57,3.54c-0.86,1.49-1.29,3.15-1.29,4.94c0,1.81,0.44,3.5,1.31,5.02
			c0.86,1.51,2.08,2.72,3.61,3.6c1.52,0.88,3.28,1.32,5.23,1.32c1.9,0,3.62-0.44,5.13-1.3c0,0,0,0,0,0
			c1.52-0.87,2.73-2.06,3.59-3.53c0.87-1.48,1.31-3.13,1.31-4.91c0-1.79-0.44-3.47-1.31-5c-0.86-1.52-2.09-2.74-3.63-3.64
			C196.17,49.71,194.42,49.26,192.5,49.26z"/>
	</g>
	<g>
		<path class="st2" d="M220.26,58.04h13.29c0,0.7-0.27,1.29-0.81,1.78c-0.54,0.49-1.18,0.73-1.93,0.73h-10.55v11.7h-2.94V46.03
			h17.44v2.59h-14.5V58.04z"/>
		<path class="st2" d="M220.26,73.19h-2.94c-0.56,0-1.01-0.42-1.01-0.94V46.03c0-0.52,0.45-0.94,1.01-0.94h17.44
			c0.56,0,1.01,0.42,1.01,0.94v2.59c0,0.52-0.45,0.94-1.01,0.94h-13.49v7.54h12.28c0.56,0,1.01,0.42,1.01,0.94
			c0,0.96-0.37,1.79-1.11,2.45c-0.73,0.66-1.62,1-2.64,1h-9.54v10.76C221.27,72.77,220.81,73.19,220.26,73.19z M218.33,71.31h0.92
			V60.55c0-0.52,0.45-0.94,1.01-0.94h10.55c0.49,0,0.88-0.15,1.23-0.46c0.06-0.05,0.12-0.11,0.16-0.17h-11.95
			c-0.56,0-1.01-0.42-1.01-0.94v-9.41c0-0.52,0.45-0.94,1.01-0.94h13.49v-0.71h-15.42V71.31z"/>
	</g>
	<g>
		<path class="st2" d="M265.9,46.78c0.54,0.5,0.81,1.11,0.81,1.84h-9.39v23.63h-2.98V48.62h-6.65c-0.78,0-1.44-0.26-1.97-0.77
			c-0.54-0.51-0.81-1.12-0.81-1.82h19.01C264.71,46.03,265.36,46.28,265.9,46.78z"/>
		<path class="st2" d="M257.32,73.19h-2.98c-0.56,0-1.01-0.42-1.01-0.94V49.56h-5.64c-1.06,0-1.96-0.35-2.7-1.05
			c-0.73-0.69-1.09-1.53-1.09-2.48c0-0.52,0.45-0.94,1.01-0.94h19.01c1.05,0,1.96,0.34,2.69,1.03c0,0,0,0,0,0
			c0.73,0.68,1.1,1.52,1.1,2.5c0,0.52-0.45,0.94-1.01,0.94h-8.38v22.69C258.33,72.77,257.88,73.19,257.32,73.19z M255.35,71.31h0.96
			V48.62c0-0.52,0.45-0.94,1.01-0.94h8.08c-0.06-0.08-0.13-0.16-0.21-0.23c-0.35-0.32-0.75-0.48-1.26-0.48h-17.69
			c0.06,0.08,0.13,0.15,0.2,0.22c0.35,0.33,0.75,0.49,1.25,0.49h6.65c0.56,0,1.01,0.42,1.01,0.94V71.31z"/>
	</g>
</g>
</svg>
